<mxfile host="app.diagrams.net" modified="2023-09-14T03:56:27.328Z" agent="Mozilla/5.0 (Macintosh; Intel Mac OS X 10_15_7) AppleWebKit/537.36 (KHTML, like Gecko) Chrome/116.0.0.0 Safari/537.36" version="21.7.2" etag="zp_5KzN-Hp_1Dz22RdGS" type="github">
  <diagram name="Page-1" id="czsOL5dWnO-yciWuYdLp">
    <mxGraphModel>
      <root>
        <mxCell id="0" />
        <mxCell id="1" parent="0" />
      </root>
    </mxGraphModel>
  </diagram>
</mxfile>
